<?xml version="1.0" standalone="no"?><!DOCTYPE svg PUBLIC "-//W3C//DTD SVG 1.1//EN" "http://www.w3.org/Graphics/SVG/1.1/DTD/svg11.dtd"><svg t="1762181556563" class="icon" viewBox="0 0 1026 1024" version="1.1" xmlns="http://www.w3.org/2000/svg" p-id="8245" xmlns:xlink="http://www.w3.org/1999/xlink" width="128.25" height="128"><path d="M513.519886 1023.719955A511.851345 511.851345 0 1 1 645.945839 17.904265a46.513105 46.513105 0 0 1 4.247299 88.571726 209.257178 209.257178 0 1 0 269.064675 268.892021 45.753426 45.753426 0 0 1 45.857019-30.249057 46.547636 46.547636 0 0 1 42.8183 34.530887 510.331985 510.331985 0 0 1-494.413246 644.070113z m-8.356475-930.538355a418.790603 418.790603 0 1 0 427.388794 427.112547A302.145265 302.145265 0 0 1 505.163411 93.1816z" fill="#FFFFFF" p-id="8246"></path></svg>